<?xml version="1.0" encoding="UTF-8" standalone="no"?>
<svg
   xmlns:dc="http://purl.org/dc/elements/1.1/"
   xmlns:cc="http://creativecommons.org/ns#"
   xmlns:rdf="http://www.w3.org/1999/02/22-rdf-syntax-ns#"
   xmlns:svg="http://www.w3.org/2000/svg"
   xmlns="http://www.w3.org/2000/svg"
   id="svg8"
   version="1.1"
   viewBox="0 0 190.39999 157"
   height="157mm"
   width="190.39999mm">
  <title
     id="title26">Cloud-Skizze aus der Vorlesung</title>
  <defs
     id="defs2" />
  <metadata
     id="metadata5">
    <rdf:RDF>
      <cc:Work
         rdf:about="">
        <dc:format>image/svg+xml</dc:format>
        <dc:type
           rdf:resource="http://purl.org/dc/dcmitype/StillImage" />
        <dc:title>Cloud-Skizze aus der Vorlesung</dc:title>
        <cc:license
           rdf:resource="http://creativecommons.org/licenses/by-sa/4.0/" />
      </cc:Work>
      <cc:License
         rdf:about="http://creativecommons.org/licenses/by-sa/4.0/">
        <cc:permits
           rdf:resource="http://creativecommons.org/ns#Reproduction" />
        <cc:permits
           rdf:resource="http://creativecommons.org/ns#Distribution" />
        <cc:requires
           rdf:resource="http://creativecommons.org/ns#Notice" />
        <cc:requires
           rdf:resource="http://creativecommons.org/ns#Attribution" />
        <cc:permits
           rdf:resource="http://creativecommons.org/ns#DerivativeWorks" />
        <cc:requires
           rdf:resource="http://creativecommons.org/ns#ShareAlike" />
      </cc:License>
    </rdf:RDF>
  </metadata>
  <g
     id="layer1">
    <path
       id="path24"
       d="m 34.930387,53.176934 0.352778,-1.41111 c -0.702733,0.45402 -0.848783,0.96943 -1.351844,1.58397 -0.762706,0.93204 -1.642428,1.25377 -2.881489,1.69686 -6.410396,2.292 -15.13078,0.79234 -18.574173,-5.3975 -1.602105,-2.88008 -2.352816,-10.89907 -6.125704,-11.72915 -1.588453,-0.34961 -2.624808,2.1082 -4.148702,1.23331 -2.54999797,-1.46333 -1.96661997,-6.87596 -1.57714297,-9.25972 C 1.789103,22.763284 6.045966,19.291774 9.689914,13.665824 c 1.458101,-2.25122 2.020464,-4.8622402 4.089047,-6.5639702 3.650086,-3.0027 8.067745,-1.90464 12.331982,-2.72831 3.010676,-0.58152 4.03606,-3.274908 7.055556,-3.92028798 3.581752,-0.76555 8.584141,1.21564798 12.347222,1.21811798 m 4.938889,1.76389 c 2.936875,-2.83830798 10.774186,-3.44980798 12.307358,1.05967 0.666397,1.95894 -1.093964,5.9818802 0.857603,7.3490002 4.193116,2.9374 11.119197,1.01215 13.128268,7.11355 1.51307,4.59634 -2.729441,10.38303 -0.984251,14.81138 0.964851,2.44722 4.262621,2.4324 6.012751,3.83293 1.27317,1.01882 1.66864,2.63737 1.57445,4.28625 -0.3736,6.54297 -6.54333,11.64167 -12.787846,11.64167 -4.072114,0 -8.227836,-1.29752 -10.583333,-4.58611 1.868311,-0.27058 2.217561,0.88371 2.469444,2.11666 M 50.45261,4.1408138 l 0.352777,0.35278 M 62.094276,51.765824 c -4.306711,6.30555 -11.715044,8.63071 -19.05,6.55179 -3.438877,-0.97473 -6.478411,-2.65254 -8.819444,-4.7879 m 110.772228,-1.41111 c 4.32611,0.5468 9.28793,1.09749 13.05277,-0.35278 0.69462,2.41723 -0.49424,5.88116 -0.98883,8.46667 -0.58879,3.07693 -0.64841,6.18631 0.63606,9.17222 -2.31811,1.34161 -6.49464,1.21991 -9.17223,1.84079 -0.87312,0.20215 -2.48426,1.10385 -3.30552,0.41134 -0.85655,-0.72178 -0.57468,-2.27118 -0.57503,-3.31046 -0.001,-2.99297 0.43744,-6.03885 1.10243,-8.81945 0.27375,-1.14476 0.64205,-3.47627 -0.39688,-2.82222 l -0.35277,0.35278 m -72.672232,0 c -0.11712,2.02635 1.60832,3.43394 2.82223,4.93889 2.653591,3.29035 5.246861,6.7631 8.113881,9.87777 m 33.161121,2.46945 c 1.17192,1.78506 3.69958,0.24271 5.29166,-0.46179 4.97029,-2.19886 9.47985,-4.87151 14.46389,-6.94654 m -41.627781,4.58611 5.29167,-0.64559 9.172221,1.02694 2.82222,0.67698 m -16.933331,1.41111 -0.38417,4.58611 -0.28963,2.46945 -0.0455,2.82222 -0.33902,4.23333 -1.41111,-0.35277 1.05833,-0.70556 m 6.35,-8.46667 c 1.137001,0.12665 5.249331,-6.31613 7.313431,-2.38901 0.84949,1.61608 -0.42298,3.54612 -1.26894,4.85846 -1.98755,3.08328 -5.56048,4.01249 -4.98616,7.76111 m 12.34722,-13.05278 c 0.70133,0.62265 -0.73765,2.52201 -1.17792,4.58611 -0.80398,3.76943 -1.79246,10.80135 0.47237,13.40556 m -12.34722,-14.46389 c -0.0317,1.5875 -0.216261,5.13045 0.35278,7.05556 m 74.78889,-3.175 c 3.3782,0 6.90633,-0.21837 10.23055,0.009 1.06116,0.0723 3.13373,0.002 3.66254,1.16134 0.75741,1.65947 -0.48648,4.86798 -0.41381,6.23817 0.0476,0.90029 0.19156,1.56034 0.37994,2.46944 0.26318,1.27142 1.74096,3.94371 0.72919,4.98899 -1.54516,1.59702 -5.33329,-0.17639 -7.18008,-0.15205 -1.14088,0.0152 -1.98261,0.16933 -3.175,0.38523 -1.14477,0.20744 -2.37561,0.70132 -3.01096,-0.68968 -1.3081,-2.86279 1.37125,-7.7343 1.5681,-10.529 0.0564,-0.79622 0.0317,-1.70709 0.0317,-2.47015 m -73.37773,-1.05832 c 1.49225,1.12607 2.3562,3.85586 3.88055,5.29167 l 0.35278,-1.05833 m -15.169441,0.35277 c 4.45876,3.03813 11.343921,3.24662 16.580551,4.23334 m 2.46945,-2.11667 c 1.23895,2.65712 4.20405,5.17772 6.33624,7.40834 4.31306,4.512726 8.64799,8.987006 13.06654,13.405546 m -32.10278,-18.344436 -10e-4,4.23333 -0.704151,13.052776 m 51.505561,-4.58612 c 1.69792,0.72849 3.76167,-0.73377 5.29167,-1.49824 4.08834,-2.04294 7.74311,-4.462636 11.99444,-5.910086 m 17.28611,9.524996 c -0.51576,2.77601 -1.32927,7.95973 -1.4164,11.28889 -0.0282,1.07844 0.0734,2.78624 -0.90805,3.51649 -1.51871,1.1303 -10.12049,0.18627 -10.81405,-1.45203 -1.13383,-2.679 1.31727,-8.41023 1.84961,-11.23668 m -0.70555,-1.76389 c 3.54435,0.002 8.45608,0.7052 11.64166,0.70555 m -48.33055,-0.35277 c 2.97885,3.07692 9.8559,1.00788 13.75833,2.46944 -1.51306,2.88325 -2.54,9.87143 -0.70555,13.05278 -4.10105,3.27343 -13.25528,0.40181 -18.34445,0 m 5.64445,-14.81667 c -1.43722,2.65183 -1.05834,8.77958 -1.05834,11.64167 M 99.489139,115.6188 c -0.73095,3.07023 -0.35277,6.26816 -0.35277,9.525 0,1.39383 0.4512,2.99685 -0.36266,4.06118 -0.54434,0.71261 -1.66582,0.55739 -2.45957,0.46708 -1.3148,-0.14887 -5.10081,-0.56692 -5.78449,-1.86408 -1.1296,-2.14313 -0.30904,-7.65351 0.14005,-10.07251 m 62.088891,-1.41111 c 4.53143,0 13.77033,-2.6917 17.28611,0.70555 m -82.550001,-0.70555 h 11.64167 m 41.627771,9.525 -0.90875,9.17222 -0.85514,7.05556 c -3.01272,-3.6e-4 -7.08166,-0.58985 -10.23055,-1.76389 m 10.58333,2.11666 c 1.69827,-0.005 4.09857,-0.99553 5.49134,0.21308 1.1744,1.01953 0.57891,2.66171 0.51964,4.02026 -0.0956,2.20239 0.0536,3.94582 0.68333,5.99722 0.26176,0.85196 0.86995,2.2038 0.36866,3.06317 -0.64347,1.10278 -3.18629,1.17158 -4.24075,1.15112 -0.9144,-0.0176 -1.51694,-0.1651 -2.46944,-0.27905 -1.69898,-0.20355 -3.11785,-0.45367 -4.93889,-0.79022 -2.2412,-0.41381 -2.67405,-1.0788 -2.36714,-3.14502 0.44062,-2.9651 1.01177,-5.41196 1.30881,-7.76111"
       style="fill:none;stroke:#1a1a1a;stroke-width:0.352778" />
  </g>
</svg>
