<?xml version="1.0" encoding="UTF-8" standalone="no"?>
<svg
   xmlns:dc="http://purl.org/dc/elements/1.1/"
   xmlns:cc="http://creativecommons.org/ns#"
   xmlns:rdf="http://www.w3.org/1999/02/22-rdf-syntax-ns#"
   xmlns:svg="http://www.w3.org/2000/svg"
   xmlns="http://www.w3.org/2000/svg"
   id="svg8"
   version="1.1"
   viewBox="0 0 54.900002 25.799999"
   height="25.799999mm"
   width="54.900002mm">
  <title
     id="title26">wunderschöne Skizze von Edge Computing aus der VL</title>
  <defs
     id="defs2" />
  <metadata
     id="metadata5">
    <rdf:RDF>
      <cc:Work
         rdf:about="">
        <dc:format>image/svg+xml</dc:format>
        <dc:type
           rdf:resource="http://purl.org/dc/dcmitype/StillImage" />
        <dc:title>wunderschöne Skizze von Edge Computing aus der VL</dc:title>
        <cc:license
           rdf:resource="http://creativecommons.org/licenses/by-sa/4.0/" />
      </cc:Work>
      <cc:License
         rdf:about="http://creativecommons.org/licenses/by-sa/4.0/">
        <cc:permits
           rdf:resource="http://creativecommons.org/ns#Reproduction" />
        <cc:permits
           rdf:resource="http://creativecommons.org/ns#Distribution" />
        <cc:requires
           rdf:resource="http://creativecommons.org/ns#Notice" />
        <cc:requires
           rdf:resource="http://creativecommons.org/ns#Attribution" />
        <cc:permits
           rdf:resource="http://creativecommons.org/ns#DerivativeWorks" />
        <cc:requires
           rdf:resource="http://creativecommons.org/ns#ShareAlike" />
      </cc:License>
    </rdf:RDF>
  </metadata>
  <g
     id="layer1">
    <path
       id="path24"
       d="m 38.065167,0.1473469 c 0,0.46734 0.0097,1.07436 -0.0013,1.524 -0.0087,0.35875 -0.07231,0.52872 -0.08213,0.93134 -0.0116,0.47195 -0.0013,0.67352 -0.0013,1.10066 0,0.38728 -0.0058,0.5173 4.23e-4,0.8466 0.0097,0.51856 0.230124,0.58745 0.67691,0.59274 m -0.169333,-4.48734 c 0.661754,-0.40537 1.706456,-0.20909 2.455333,-0.26157 0.346964,-0.0243 0.855895,-0.0987 1.185333,-0.13759 0.188383,-0.0222 0.317246,-0.0182 0.508,-0.0274 0.272119,-0.0132 0.406993,-0.0553 0.677333,-0.0738 0.329608,-0.0226 0.556853,-0.008 0.931334,-0.008 0.472101,0 0.678688,-0.009 1.100666,0.001 0.288798,0.007 0.42181,0.0446 0.677334,0.0691 0.204046,0.0195 0.319108,0.009 0.508,0.022 0.20701,0.0145 0.318346,0.0444 0.508,0.0627 0.196172,0.019 0.318939,0.0104 0.508,0.0288 0.698754,0.0677 2.030306,0.10513 2.428409,0.83595 0.374227,0.68698 -0.02523,1.98953 -0.100499,2.70568 -0.02379,0.2265 -0.0348,0.36917 -0.04284,0.59266 -0.0105,0.29263 -0.06198,0.46716 -0.07493,0.762 -0.01397,0.31727 0.07976,1.06947 0.245195,1.27 m -12.107333,-1.94733 c 0.947505,0.12142 1.533652,0.0847 2.709333,0.0847 0.683006,0 1.40716,-0.0244 1.778,-0.59267 -0.575649,-0.13197 -1.776391,-0.28242 -2.222754,-0.94603 -0.278722,-0.41433 0.0944,-0.73767 0.444839,-0.93388 0.508846,-0.28494 1.103545,-0.56816 1.693248,-0.40609 m -34.9673317,1.86267 c 0.05046,-0.65322 0.638353,-0.64256 1.185333,-0.60893 1.079924,0.0664 2.1891417,0.54939 2.9599467,1.29417 0.565489,0.54642 1.251288,1.60095 1.070948,2.44742 -0.06875,0.3228 -0.621029,0.79403 -0.530351,1.0765 0.09373,0.29206 0.599101,0.51219 0.813731,0.71624 0.433832,0.41232 0.58039,0.91346 0.472355,1.5092601 -0.132419,0.73102 -0.608838,1.48082 -1.086697,2.03166 -0.382777,0.44112 -0.9028,0.85776 -1.498599,0.67768 M 42.467772,3.9569069 c 0.09296,-0.31304 0.502666,-1.08145 1.094401,-0.98019 0.715349,0.1224 -0.2921,0.76412 -0.586401,0.81086 M 2.0818355,3.3646869 c 0.5615183,0.47798 2.1151079,-0.18161 2.7939999,-0.33867 m 41.1479986,2.032 c 0.123359,-0.0236 0.231394,-0.0375 0.340783,-0.0888 0.889,-0.41738 -0.427651,-0.61385 -0.505037,-1.18239 -0.0994,-0.73042 0.953262,-0.76502 1.349587,-0.50676 m -3.217333,1.10067 c 0.555328,-0.91808 1.177713,-1.13244 1.524,0.0847 M 2.0818355,3.6186869 c 0.6022253,0.92181 0.4106423,1.57734 -0.1696635,2.45533 -0.6249416,0.94553 -1.63461192,1.86919 -1.76172962,3.048 -0.061541,0.57074 0.2388388,1.1672101 0.6045564,1.6085801 0.79078672,0.95436 1.95114302,1.106 2.93517262,1.78596 0.565548,0.39082 0.510887,1.07645 0.951002,1.48065 0.661195,0.60723 2.2668819,0.61375 3.1133279,0.73576 0.874692,0.12606 2.059856,0.44272 2.7903597,-0.2104 0.50546,-0.45187 0.582591,-0.93633 0.342307,-1.50588 M 48.055834,4.9733469 47.8865,5.3120169 c 0.402336,-0.0453 0.551519,-0.1155 0.587672,-0.5093 0.02371,-0.25753 -0.03759,-0.40413 0.07764,-0.67238 0.218101,-0.50769 0.860552,-0.51137 1.282023,-0.51165 m -3.048,0.84666 c 0.506645,-0.60755 1.111334,-0.88908 1.693333,-0.254 m -4.487333,-0.16933 v 0.0847 m -1.524,0.16933 c 0.370501,0.51985 0.819827,0.63875 1.439333,0.79362 1.214543,0.30363 2.410375,0.67906 3.640667,0.91638 0.71992,0.13887 1.514686,0.23726 2.201333,0.23733 m -14.054666,-1.778 c 0.865801,0.0683 1.45161,0.12291 2.116666,0.0847 m 5.08,0.0847 0.592667,-0.0847 m -1.608667,0.16933 c 0.434763,0.0547 0.52578,0.0883 0.846667,0 m 4.148666,0.16934 c 0.174752,0.31756 0.381762,0.5095 0.846667,0.33866 m -9.736666,-0.16933 c -0.46228,0.24702 -1.34239,0.3053 -2.201334,0.42333 -1.69528,0.23296 -3.330109,0.58149 -4.995333,0.78611 -0.631867,0.0777 -1.358731,0.29002 -1.947333,-0.0241 m -8.805333,-0.67733 -0.08467,5.0800001 m 3.217333,-4.9953301 2.794,0.33618 1.524,0.002 m 0.508,0.508 0.338667,-0.0847 c -0.0043,0.51906 -0.115655,1.0451 -0.221065,1.60866 -0.154686,0.82694 -0.388789,1.69249 -0.456269,2.5400001 M 21.724499,7.3435669 c -0.162814,0.86394 -0.502751,2.09533 -0.08467,2.8786701 0.318855,-0.2594201 0.746845,-0.7929101 1.185334,-0.8037401 0.406146,-0.0101 0.78105,0.7106901 1.161711,0.42562 0.648462,-0.48557 -0.194987,-1.48345 0.531622,-1.90788 m 1.778,2.2013301 c 0.236474,-0.1121 1.481158,-0.6386401 0.98408,-1.0136301 -0.272457,-0.20557 -0.536786,-0.0765 -0.814662,-0.0886 -0.209042,-0.009 -0.46101,-0.0323 -0.525695,-0.26492 -0.178647,-0.64152 0.883327,-1.39257 1.456943,-1.1728 m -13.885333,1.69333 4.064,-0.0847 m 2.54,1.8626601 c 0.563711,0.72196 1.616287,0.71451 2.455334,0.6168 1.544997,-0.17975 3.156627,-0.19346 4.741333,-0.19346 m 0.508,0 0.08467,0.0847 m 1.100667,1.69334 0.338667,0.254 m 0.846666,0.254 0.677334,0.508 m 0.846666,0.0847 1.016,0.33867 m 14.308667,-0.16933 2.709333,0.254 1.100667,0.0814 0.592666,0.003 1.016,3.4e-4 2.370667,0.423 m -8.297333,0 c -0.269494,1.00821 -1.072727,3.07873 -0.677334,4.064 m -11.175999,-3.64067 1.100666,1.016 m 19.134666,-0.762 c -0.223435,0.96562 -0.658283,1.92786 -0.876215,2.87867 -0.151214,0.65997 -0.398441,1.5737 -0.224451,2.20133 m -1.778,-4.91067 c 0.639826,0.71341 0.568706,1.54703 0.677333,2.37067 m -2.370666,-2.032 c 0,0.44061 -0.179324,0.84387 0.08704,1.24308 0.384471,0.57624 1.578695,0.17924 2.114296,0.11159 m -14.732,-0.84667 1.016,0.508 m 2.455333,0.33867 0.592667,0.254 m 8.466667,-0.16934 0.169333,0.67734 m -7.62,-0.508 0.677333,0.254 m -12.445999,0 c -0.08729,1.069 -0.745575,1.86766 -0.423334,2.794 0.376174,-0.40843 1.035897,-1.25984 1.363642,-0.42291 0.09737,0.24849 0.07493,0.49005 0.07569,0.76157 m -4.656667,-3.048 c -0.01465,0.70917 -0.09889,1.51808 -0.464143,2.1154 -0.12429,0.20329 -0.409278,0.59715 -0.694351,0.43459 -0.720767,-0.41114 0.287359,-1.27254 0.819827,-1.19532 m -1.947333,0.0847 0.338667,-0.16934 c -0.03209,0.21294 -0.06612,0.40158 -0.176953,0.5925 -0.708914,1.22183 -1.647614,-0.084 -0.745236,-0.91186 0.296502,-0.27195 0.725847,-0.34332 0.948944,-0.17831 0.301752,0.22327 0.492675,0.64076 0.142578,1.00567 m -0.169333,-1.016 -0.169333,0.42334 m 0.254,-0.33867 v 0.33867 m 10.329333,1.60866 c -0.352722,0.12827 -0.973921,0.26848 -0.987552,-0.33909 -0.0098,-0.43992 0.80247,-1.63059 1.241552,-1.10024 m -8.805334,0.0847 0.169334,0.33866 m 6.179058,-0.0668 c 0.74168,0.14537 0.325797,1.23597 -0.33545,1.13166 -0.728302,-0.1149 -0.353568,-1.26679 0.33545,-1.13166 m 12.447608,0.3208 c 1.616202,0 3.490299,0 5.08,0 0.263906,0 0.427651,-0.009 0.677333,0.008 0.230548,0.0157 0.398103,0.0542 0.592667,0.0698 0.361188,0.0291 0.780627,0.11057 1.100667,0.17661 m -14.816667,0.762 0.169334,2.37067 m -8.89,-1.778 c -8.5e-5,0.61265 -0.317754,1.49691 0.169333,1.69333 m -5.164666,-1.43933 -0.451274,1.18533 -0.564726,1.778 m 3.217333,-2.794 c -0.01431,0.67175 -0.228177,1.29244 -0.685292,1.77673 -0.295656,0.31319 -0.752348,0.69876 -1.141899,0.31293 -0.517144,-0.51206 -0.374142,-1.28566 -0.374142,-1.75099 m 2.539999,1.18533 c 0.12573,-0.36643 0.31386,-0.55262 0.677334,-0.67733 l 0.08467,0.0847 c -0.139446,0.40682 -0.399711,0.62831 -0.846666,0.67733 v 0.0847 l 0.08467,0.0847 0.08467,-0.0847 m 10.922,-0.762 -1.293029,0.3655 -0.484971,1.1585 -0.254,-0.42334 c -1.071965,0.47448 -1.093385,-0.13284 -1.778,-0.67733 -0.430699,0.96537 -0.997119,1.03124 -1.947333,1.35467 -0.149268,-0.59741 0.254,-1.06596 0.508,-1.524 m 2.201333,0.0847 0.677333,-0.16933 c -0.367453,0.28397 -0.526965,0.25036 -0.846666,0.33867 l -0.08467,0.0847 -0.08467,0.0847 m -6.35,-0.508 c 0.5207,0.0967 0.667766,0.0907 0.931334,0.16933 m 0.846666,-0.16933 1.608667,0.254 c -0.404622,0.40716 -0.639911,0.59377 -0.423333,1.10067 m -2.032,-1.18534 c -0.04437,0.34358 -0.432054,1.27364 0.08467,1.60867 m 9.482667,-0.16933 c -0.399288,-0.50199 -0.293285,-1.24164 0.423333,-1.35467 m -12.276666,0.33867 c -0.233511,0.6709 0.06816,1.38692 0.846666,0.84666 m -1.27,-0.762 h 0.169334 m 4.656666,1.18534 c -0.253322,0.14258 -1.084326,0.59012 -1.199557,0.072 -0.09559,-0.42943 0.56642,-0.80857 0.860891,-1.00339 m -1.016,0.254 c 0.367114,-0.13436 0.458046,-0.14732 0.677333,-0.16933"
       style="fill:none;stroke:#1a1a1a;stroke-width:0.0846667" />
  </g>
</svg>
